<svg xmlns="http://www.w3.org/2000/svg">
    <symbol id="icon-loading" viewBox="0 0 512 512">
        <path d="M50.97,236c4.035-41.876,20.599-80.088,45.91-110.835l28.439,28.439
    C106.525,177.492,94.792,205.819,91.19,236H50.97z M275.999,50.969V91.19c30.181,3.602,58.508,15.335,82.396,34.129l28.44-28.44
    C356.087,71.568,317.875,55.004,275.999,50.969z M153.604,125.319c23.888-18.794,52.215-30.527,82.395-34.129V50.97
    c-41.875,4.035-80.087,20.6-110.834,45.91L153.604,125.319z M125.319,358.395C106.525,334.507,94.792,306.181,91.19,276H50.97
    c4.034,41.876,20.599,80.088,45.909,110.835L125.319,358.395z M358.396,386.681c-23.889,18.794-52.216,30.527-82.396,34.129v40.222
    c41.876-4.035,80.089-20.6,110.836-45.911L358.396,386.681z M386.681,153.604c18.794,23.888,30.527,52.215,34.129,82.396h40.221
    c-4.035-41.876-20.6-80.089-45.91-110.836L386.681,153.604z M420.81,276c-3.602,30.181-15.335,58.508-34.129,82.396l28.439,28.439
    c25.312-30.747,41.875-68.959,45.91-110.835H420.81z M235.999,420.81c-30.18-3.602-58.508-15.335-82.395-34.13l-28.44,28.44
    c30.747,25.311,68.96,41.875,110.835,45.91V420.81z"/>
    </symbol>
    <symbol id="view-5" viewBox="0 0 24 24">
        <path d="M6 6h-6v-6h6v6zm9-6h-6v6h6v-6zm9 0h-6v6h6v-6zm-18 9h-6v6h6v-6zm9 0h-6v6h6v-6zm9 0h-6v6h6v-6zm-18 9h-6v6h6v-6zm9 0h-6v6h6v-6zm9 0h-6v6h6v-6z"/>
    </symbol>
    <symbol id="view-6" viewBox="0 0 24 24">
        <path d="M11 11h-11v-11h11v11zm13 0h-11v-11h11v11zm-13 13h-11v-11h11v11zm13 0h-11v-11h11v11z"/>
    </symbol>
    <symbol id="view-16" viewBox="0 0 24 24">
        <path d="M1.004 6.251l10.996-5.998 10.99 6.06-10.985 5.861-11.001-5.923zm11.996 7.676v9.82l10-5.362v-9.82l-10 5.362zm-2 0l-10-5.411v9.869l10 5.362v-9.82z"/>
    </symbol>
    <symbol id="view-17" viewBox="0 0 24 24">
        <path d="M12 0l-11 6v12.131l11 5.869 11-5.869v-12.066l-11-6.065zm7.91 6.646l-7.905 4.218-7.872-4.294 7.862-4.289 7.915 4.365zm-16.91 1.584l8 4.363v8.607l-8-4.268v-8.702zm10 12.97v-8.6l8-4.269v8.6l-8 4.269z"/>
    </symbol>
    <symbol id="help-6" viewBox="0 0 24 24">
        <path d="M12 3c5.514 0 10 3.592 10 8.007 0 4.917-5.145 7.961-9.91 7.961-1.937 0-3.383-.397-4.394-.644-1 .613-1.595 1.037-4.272 1.82.535-1.373.723-2.748.602-4.265-.838-1-2.025-2.4-2.025-4.872-.001-4.415 4.485-8.007 9.999-8.007zm0-2c-6.338 0-12 4.226-12 10.007 0 2.05.738 4.063 2.047 5.625.055 1.83-1.023 4.456-1.993 6.368 2.602-.47 6.301-1.508 7.978-2.536 1.418.345 2.775.503 4.059.503 7.084 0 11.91-4.837 11.91-9.961-.001-5.811-5.702-10.006-12.001-10.006zm1.024 13.975c0 .566-.458 1.025-1.024 1.025-.565 0-1.024-.459-1.024-1.025 0-.565.459-1.024 1.024-1.024.566 0 1.024.459 1.024 1.024zm1.141-8.192c-.498-.505-1.241-.783-2.09-.783-1.786 0-2.941 1.271-2.941 3.237h1.647c0-1.217.68-1.649 1.261-1.649.519 0 1.07.345 1.117 1.004.052.694-.319 1.046-.788 1.493-1.157 1.1-1.179 1.633-1.173 2.842h1.643c-.01-.544.025-.986.766-1.785.555-.598 1.245-1.342 1.259-2.477.008-.758-.233-1.409-.701-1.882z"/>
    </symbol>
    <symbol id="calendar-1" viewBox="0 0 24 24">
        <path d="M20 19h-4v-4h4v4zm-6-10h-4v4h4v-4zm6 0h-4v4h4v-4zm-12 6h-4v4h4v-4zm16-14v22h-24v-22h24zm-2 6h-20v14h20v-14zm-8 8h-4v4h4v-4zm-6-6h-4v4h4v-4z"/>
    </symbol>
    <symbol id="calendar-2" viewBox="0 0 24 24">
        <path d="M14 13h-4v-4h4v4zm6-4h-4v4h4v-4zm-12 6h-4v4h4v-4zm6 0h-4v4h4v-4zm-6-6h-4v4h4v-4zm16-8v22h-24v-22h24zm-7.471 19.96c1.616-.863 4.35-3.572 5.471-5.058v-.018c-.962.658-2.978 1.207-4.479.856.165 1.087-.137 3.356-.992 4.22zm-14.529.04h11.589c3.328 0 2.331-5.903 2.331-5.903 2.14.529 6.08.278 6.08-1.942v-6.155h-20v14z"/>
    </symbol>
    <symbol id="calendar-3" viewBox="0 0 24 24">
        <path d="M14 13h-4v-4h4v4zm6-4h-4v4h4v-4zm-12 6h-4v4h4v-4zm6 0h-4v4h4v-4zm-6-6h-4v4h4v-4zm16-8v13.386c0 2.391-6.648 9.614-9.811 9.614h-14.189v-23h24zm-2 6h-20v15h11.362c4.156 0 2.638-6 2.638-6s6 1.65 6-2.457v-6.543z"/>
    </symbol>
    <symbol id="calendar-4" viewBox="0 0 24 24">
        <path d="M20 20h-4v-4h4v4zm-6-10h-4v4h4v-4zm6 0h-4v4h4v-4zm-12 6h-4v4h4v-4zm6 0h-4v4h4v-4zm-6-6h-4v4h4v-4zm16-8v22h-24v-22h3v1c0 1.103.897 2 2 2s2-.897 2-2v-1h10v1c0 1.103.897 2 2 2s2-.897 2-2v-1h3zm-2 6h-20v14h20v-14zm-2-7c0-.552-.447-1-1-1s-1 .448-1 1v2c0 .552.447 1 1 1s1-.448 1-1v-2zm-14 2c0 .552-.447 1-1 1s-1-.448-1-1v-2c0-.552.447-1 1-1s1 .448 1 1v2z"/>
    </symbol>
    <symbol id="calendar-7" viewBox="0 0 24 24">
        <path d="M17 1c0-.552-.447-1-1-1s-1 .448-1 1v2c0 .552.447 1 1 1s1-.448 1-1v-2zm-12 2c0 .552-.447 1-1 1s-1-.448-1-1v-2c0-.552.447-1 1-1s1 .448 1 1v2zm13 5v10h-16v-10h16zm2-6h-2v1c0 1.103-.897 2-2 2s-2-.897-2-2v-1h-8v1c0 1.103-.897 2-2 2s-2-.897-2-2v-1h-2v18h20v-18zm4 3v19h-22v-2h20v-17h2zm-17 7h-2v-2h2v2zm4 0h-2v-2h2v2zm4 0h-2v-2h2v2zm-8 4h-2v-2h2v2zm4 0h-2v-2h2v2zm4 0h-2v-2h2v2z"/>
    </symbol>
    <symbol id="layer-1" viewBox="0 0 24 24">
        <path d="M22 6v16h-16v-16h16zm2-2h-20v20h20v-20zm-24-4v20h2v-18h18v-2h-20z"/>
    </symbol>
    <symbol id="layer-9" viewBox="0 0 24 24">
        <path d="M20 0v2h-18v18h-2v-20h20zm4 22.15l-1.85 1.85-8.906-9.196 1.85-1.85 8.906 9.196zm-6.718-5.902l-2.188-2.189-.745.746 2.188 2.189.745-.746zm.147 5.752h-11.429v-16h16v11.21l2 2.065v-15.275h-20v20h15.366l-1.937-2zm.86-11.987c.253.825.898 1.471 1.724 1.723-.825.252-1.471.897-1.724 1.723-.251-.826-.897-1.471-1.723-1.723.826-.252 1.472-.898 1.723-1.723zm-8.017 4.243c.333 1.095 1.191 1.951 2.285 2.285-1.094.334-1.952 1.191-2.285 2.285-.335-1.094-1.191-1.951-2.285-2.285 1.095-.334 1.951-1.19 2.285-2.285zm3.138-3.739c.177.584.635 1.041 1.219 1.219-.584.178-1.042.635-1.219 1.219-.179-.584-.636-1.041-1.22-1.219.584-.178 1.041-.635 1.22-1.219z"/>
    </symbol>
    <symbol id="x-mark-1" viewBox="0 0 24 24">
        <path d="M24 20.188l-8.315-8.209 8.2-8.282-3.697-3.697-8.212 8.318-8.31-8.203-3.666 3.666 8.321 8.24-8.206 8.313 3.666 3.666 8.237-8.318 8.285 8.203z"/>
    </symbol>
    <symbol id="x-mark-2" viewBox="0 0 24 24">
        <path d="M23.954 21.03l-9.184-9.095 9.092-9.174-2.832-2.807-9.09 9.179-9.176-9.088-2.81 2.81 9.186 9.105-9.095 9.184 2.81 2.81 9.112-9.192 9.18 9.1z"/>
    </symbol>
    <symbol id="close" viewBox="0 0 24 24">
        <path d="M20.827 4.357l-0.707-0.707-8.131 8.132-8.132-8.132-0.707 0.707 8.132 8.132-8.132 8.132 0.707 0.707 8.132-8.132 8.131 8.132 0.707-0.707-8.131-8.132z"/>
    </symbol>
    <symbol id="menu-1" viewBox="0 0 24 24">
        <path d="M24 6h-24v-4h24v4zm0 4h-24v4h24v-4zm0 8h-24v4h24v-4z"/>
    </symbol>
    <symbol id="circle-2" viewBox="0 0 24 24">
        <path d="M12 2c5.514 0 10 4.486 10 10s-4.486 10-10 10-10-4.486-10-10 4.486-10 10-10zm0-2c-6.627 0-12 5.373-12 12s5.373 12 12 12 12-5.373 12-12-5.373-12-12-12z"/>
    </symbol>
    <symbol id="graffiti" viewBox="0 0 100 100">
        <rect x="17" y="20" width="24" height="12"/><rect x="45" y="20" width="24" height="12"/><rect x="73" y="20" width="10" height="12"/><rect x="17" y="36" width="10" height="12"/><polygon points="46.961,44.723 42.699,48 47.289,48  "/><path d="M49.992,37.705c0.832,0.359,1.406,1.143,1.496,2.047L52.312,48H55V36H31v12h3.498l12.979-9.982   C48.195,37.465,49.16,37.348,49.992,37.705z"/><path d="M59,48h1.598l8.73-7.857c1.027-0.928,2.605-0.842,3.531,0.186c0.922,1.025,0.84,2.607-0.188,3.529L68.07,48   H83V36H59V48z"/><path d="M41,52h-3.5L32,56.23V62c0,0.553-0.447,1-1,1s-1-0.447-1-1v-4.23l-5.477,4.213   C24.07,62.33,23.535,62.5,23.002,62.5c-0.75,0-1.49-0.336-1.982-0.977c-0.844-1.094-0.639-2.664,0.457-3.506L29.299,52H17v12h24V52   z"/><path d="M69,52h-5.375l-10.953,9.857c-0.701,0.631-1.697,0.812-2.574,0.475c-0.879-0.34-1.492-1.146-1.586-2.084   L47.688,52H45v12h24V52z"/><polygon points="52.996,54.84 56.152,52 52.711,52  "/><rect x="73" y="52" width="10" height="12"/><rect x="17" y="68" width="10" height="12"/><rect x="31" y="68" width="24" height="12"/><rect x="59" y="68" width="24" height="12"/>
    </symbol>
    <symbol id="water-leak" viewBox="0 0 612 990">
        <path d="M205,391.2c25.9,0,21,0,46.8,0c0-2,0-3.8,0-5.5c0-12.8,0-25.7,0-38.5c0-8.2,4-12.1,12.3-12.2c3.6,0,7.3,0,11.6,0  c0-8.9,0-17.5,0-26.1c0-12.1,0-12.1,12.1-12.1c5.2,0,10.3,0.2,15.5-0.1c4.1-0.2,5.6,1.3,5.5,5.4c-0.2,9.2-0.1,18.3-0.1,27.5  c0,1.6,0.1,3.2,0.2,5.3c4.1,0,7.9-0.1,11.7,0c7.7,0.2,12,4.3,12.1,12.2c0.1,14.5,0,28.9,0,44c2.4,0,4.5,0.1,6.5,0  c28.1-1.5,54.8,3.4,78.8,18.8c30.9,19.9,45.7,49.6,50.8,85c1.2,8.5,1.6,17.2,2.3,26.3c-22.1,0-43.5,0-65.2,0  c-0.7-6.5-1-13.3-2.1-19.9c-2.4-14.5-7.3-27.8-20-36.6c-11-7.6-23.5-9.9-36.5-9.7c-6.5,0.1-13,0.3-19.5,0.3c-48.7,0-67.3,0-116,0  c-2.1,0-4.3,0-7,0c0,7.4,0,14.3,0,21.9c-9.7,0-18.8,0.1-27.9-0.2c-0.9,0-2.4-2.5-2.5-3.9c-0.3-6.5-0.1-13-0.1-19.5  c0-26,0.1-52-0.1-78c0-5,1.3-6.9,6.5-6.5c6,0.4,12,0.5,18,0c5.3-0.4,6.7,1.5,6.2,6.5C204.7,380.8,205,385.8,205,391.2z"/><path d="M381.5,270.4c0,9.1-5.7,16.9-14.3,19.5c-9.1,2.7-18.7-0.5-23.6-8.5c-1.8-2.9-3.6-3.8-6.7-3.6c-4.7,0.2-9.3,0.2-14,0  c-6.4-0.2-11.6,0-16.5,6.5c-7.9,10.5-24.9,8.3-32.1-3.1c-1.7-2.6-3.3-3.5-6.3-3.5c-7.3,0.2-14.7-0.1-22,0.2  c-1.9,0.1-4.4,1.3-5.4,2.9c-5.8,8.3-15,11.9-24.4,9c-8.4-2.6-14.4-10.8-14.3-19.6c0.1-9.1,6.2-16.9,15.1-19.4  c9.3-2.6,18.2,1.1,23.7,9.5c0.9,1.3,2.9,2.6,4.5,2.6c7.8,0.3,15.7,0.3,23.5,0c1.7-0.1,4-1.3,4.9-2.8c9-13.6,27.3-13.6,36.2,0.1  c0.9,1.4,3.3,2.6,5,2.6c7.5,0.3,15,0,22.5,0.2c2.8,0.1,4.3-0.7,5.9-3.3c4.8-8.1,14.3-11.6,23.4-9C375.8,253.4,381.5,261,381.5,270.4  z"/><path d="M435.5,539.1c2.7,12.9,6.5,24.8,14,35.4c5.5,7.8,4.1,17.5-2.9,23.4c-6.7,5.6-16.8,5.5-23.4-0.3c-6.6-5.8-7.8-15.5-2.5-23.1  c6.7-9.4,10.4-20,13.1-31c0.3-1.1,0.6-2.2,0.9-3.4C434.9,539.8,435.2,539.6,435.5,539.1z"/>
    </symbol>
    <symbol id="dumping" viewBox="0 0 193.025 275.63">
        <path d="M134.798,158.763c10.106,10.648,14.118,43.828-32.964,52.903c-6.996,1.35,0,7.668,39.419,7.667   c51.667-0.001,60.562-8.591,44.581-10.999c-5.068-0.688-34.167-3.334-32.581-12.923c4.641-28.059-6.244-37.76-17.257-39.658   l-0.737,1.993C135.128,158.101,134.969,158.436,134.798,158.763z"/><ellipse transform="matrix(0.4457 -0.8952 0.8952 0.4457 23.282 82.5959)" cx="78.333" cy="22.499" rx="22.494" ry="22.495"/><path d="M57.382,52.12l0.019,0.004l0.113,0.016c0.256,0.043,0.503,0.106,0.75,0.168c5.017,1.258,8.31,6.193,7.427,11.374   c-0.387,2.264-1.513,4.23-3.098,5.685c-0.455,0.418-0.947,0.794-1.473,1.121l2.76,1.021c0.013-0.011,0.026-0.019,0.039-0.029   c1.567-1.292,3.728-1.7,5.714-0.966c0.452,0.169,0.868,0.403,1.261,0.671c0.101,0.068,0.207,0.126,0.303,0.201   c1.152,0.901,1.911,2.213,2.151,3.63l24.036,8.895c1.571-1.317,3.752-1.735,5.754-0.995c0.566,0.211,1.092,0.504,1.565,0.873   c1.152,0.902,1.909,2.209,2.151,3.627l12.311,4.557c-0.008-4.044-3.069-7.51-7.18-7.932c-15.468-1.633-24.889-9.064-31.046-16.367   c-3.036-3.644-5.138-7.237-6.445-9.856c-0.652-1.308-1.106-2.371-1.384-3.069c-0.141-0.348-0.234-0.605-0.29-0.756   c-0.025-0.075-0.044-0.125-0.05-0.143H72.77c-0.623-1.907-1.899-3.416-3.497-4.372c-0.821-0.856-1.761-1.594-2.848-2.157   c-6.12-3.166-15.491-2.837-23.245,3.741c0.221-0.003,0.449-0.01,0.666-0.011C50.096,51.061,55.394,51.803,57.382,52.12z"/><path d="M48.537,71.231c-1.397-0.101-2.999-0.179-4.676-0.179c-2.693,0-5.133,0.206-6.948,0.584   c-0.855,0.164-1.542,0.379-2.036,0.568c0.272,0.89,0.853,2.322,1.99,4.183c1.064,1.772,2.881,4.404,5.927,7.96l3.677-9.935   C46.931,73.171,47.651,72.104,48.537,71.231z"/><path d="M20.91,215.249c12.932-11.755,21.675-23.421,27.16-34.702c3.649-7.477,5.823-14.773,6.868-21.633   c1.843,2.914,3.537,5.937,5,9.027c3.651,7.692,5.855,15.695,5.851,23.701c-0.004,4.163-0.58,8.355-1.908,12.692   c-2.024,6.6,1.685,13.593,8.285,15.617c1.221,0.374,2.456,0.552,3.669,0.553c5.349,0,10.298-3.458,11.949-8.838h-0.002   c2.078-6.763,3.009-13.51,3.007-20.023c-0.006-12.806-3.539-24.596-8.496-34.902c-1.282-2.656-2.664-5.215-4.108-7.688   c-0.41-0.188-0.802-0.407-1.155-0.684c-1.152-0.901-1.912-2.21-2.151-3.63l-24.036-8.895c-1.57,1.316-3.753,1.734-5.753,0.995   c-0.569-0.21-1.095-0.505-1.566-0.874c-0.648-0.508-1.156-1.153-1.532-1.866c-0.292-0.552-0.511-1.141-0.616-1.759l-6.156-2.278   c-0.853-0.315-1.647-0.759-2.357-1.315c-3.016-2.357-4.148-6.354-2.818-9.943l5.042-13.623c-0.506-0.358-0.987-0.761-1.429-1.217   c-0.118-0.121-0.225-0.238-0.341-0.359c-4.497-4.667-8.108-8.916-10.918-12.863c-1.525,5.927-2.636,12.38-3.531,19.979   c-0.341,8.282,2.138,13.438,5.825,16.772c0.642,1.054,1.355,2.333,2.053,3.822c2.053,4.363,3.963,10.352,3.963,17.545   c-0.015,5.933-1.245,12.765-5.115,20.753c-3.878,7.971-10.489,17.126-21.498,27.14c-5.109,4.645-5.485,12.55-0.84,17.659   C7.896,219.517,15.801,219.893,20.91,215.249z"/><path d="M84.095,134.369c10.108,3.721,21.306-1.427,25.061-11.521c3.723-10.109-1.426-21.307-11.521-25.063   c-10.107-3.721-21.305,1.427-25.063,11.523C68.851,119.414,73.999,130.612,84.095,134.369z M84.885,132.235   c-0.237-0.088-0.469-0.184-0.698-0.28l4.914-11.688c0.063,0.026,0.119,0.056,0.185,0.079c1.645,0.609,3.416,0.203,4.633-0.9   l8.512,9.39C97.82,133.001,91.119,134.53,84.885,132.235z M96.131,99.677c0.238,0.074,0.477,0.154,0.714,0.241   c6.228,2.318,10.32,7.842,11.104,14.004l-12.572,1.586c-0.208-1.628-1.286-3.09-2.934-3.698c-0.063-0.023-0.126-0.04-0.19-0.06   L96.131,99.677z M91.852,113.411c1.473,0.543,2.226,2.181,1.68,3.654c-0.546,1.473-2.181,2.225-3.654,1.68   c-1.474-0.545-2.227-2.182-1.682-3.654C88.742,113.617,90.379,112.864,91.852,113.411z M74.706,110.098   c1.189-3.193,3.223-5.824,5.751-7.738l7.658,10.094c-0.667,0.506-1.206,1.199-1.518,2.045c-0.313,0.844-0.356,1.719-0.179,2.54   l-12.382,2.675C73.361,116.615,73.529,113.295,74.706,110.098z"/><path d="M54.151,71.858l-0.128-0.02l-0.577-0.087c-0.461-0.066-1.14-0.155-1.958-0.247c-1.4,0.752-2.546,1.993-3.142,3.602   l-4.053,10.952c1.102,1.231,2.329,2.554,3.715,3.98c3.841,3.955,3.744,10.297-0.212,14.138c-1.875,1.821-4.348,2.825-6.962,2.825   c-0.065,0-0.128-0.008-0.193-0.01c-1.329-0.025-2.61-0.302-3.793-0.816l-4.931,13.323c-1.295,3.501,0.492,7.392,3.994,8.688   l7.404,2.74c-0.144,1.233,0.326,2.45,1.228,3.273c0.352,0.321,0.764,0.588,1.239,0.764c1.691,0.625,3.535-0.026,4.499-1.459   l23.611,8.739l2.928,1.083c-0.201,1.715,0.774,3.41,2.466,4.037c1.691,0.627,3.535-0.026,4.5-1.459l26.539,9.822   c-0.201,1.715,0.773,3.41,2.465,4.037c1.691,0.626,3.537-0.026,4.5-1.459l7.404,2.74c3.399,1.259,7.158-0.396,8.562-3.697   c0.042-0.099,0.089-0.195,0.127-0.297l0.58-1.568l15.851-42.822c1.297-3.504-0.492-7.393-3.994-8.689l-7.405-2.74   c0.202-1.716-0.772-3.411-2.465-4.037c-1.692-0.627-3.536,0.025-4.5,1.459l-12.547-4.644l-13.991-5.178   c0.2-1.717-0.775-3.412-2.467-4.038c-1.691-0.626-3.535,0.026-4.5,1.46l-26.539-9.823c0.156-1.322-0.393-2.626-1.424-3.444   c-0.308-0.244-0.652-0.45-1.041-0.593c-1.388-0.513-2.868-0.157-3.891,0.773c-0.225,0.205-0.435,0.428-0.609,0.687l-5.955-2.205   C57.642,71.878,56.754,72,55.841,72C55.278,72,54.709,71.953,54.151,71.858z M98.763,94.737c2.921,1.081,5.486,2.699,7.628,4.699   c6.503,6.072,9.095,15.673,5.814,24.541c-4.364,11.784-17.452,17.803-29.239,13.44c-11.785-4.363-17.804-17.452-13.441-29.237   c3.052-8.245,10.375-13.662,18.533-14.683C91.563,93.058,95.221,93.426,98.763,94.737z"/><path d="M35.81,103.22c0.54,0.437,1.125,0.791,1.737,1.067c1.042,0.47,2.163,0.713,3.288,0.713c2.006,0,4.015-0.75,5.569-2.258   c3.172-3.078,3.248-8.141,0.17-11.312c-1.102-1.134-2.107-2.213-3.062-3.262c-0.523-0.575-1.026-1.138-1.507-1.687   c-3.131-3.579-5.383-6.618-6.843-9.05c-2.133-3.489-2.526-5.665-2.489-6.206c0-0.044,0.001-0.079,0.003-0.108   c0.008-0.007,0.016-0.014,0.026-0.022c0.276-0.28,1.692-1.013,3.804-1.416c2.093-0.435,4.763-0.63,7.355-0.626   c2.701,0,5.318,0.195,7.278,0.402c0.083,0.009,0.173,0.018,0.254,0.026c0.992,0.107,1.797,0.214,2.338,0.29   c0.271,0.039,0.476,0.07,0.604,0.091c0.13,0.021,0.15,0.024,0.15,0.024c1.405,0.24,2.786,0.093,4.039-0.357   c1.148-0.412,2.188-1.08,3.036-1.95c1.094-1.121,1.873-2.572,2.157-4.233c0.726-4.258-2.061-8.295-6.254-9.168   c-0.096-0.02-0.188-0.047-0.286-0.064h-0.002c-0.263-0.039-6.13-1.052-13.316-1.063c-0.929,0.007-1.883,0.032-2.848,0.071   c-4.176,0.169-8.644,0.72-13.035,2.449c-2.686,1.089-5.461,2.721-7.711,5.426c-2.266,2.672-3.641,6.48-3.594,10.227   c0.039,4.87,1.804,9.479,4.788,14.473c0.498,0.823,1.048,1.665,1.623,2.516c2.915,4.317,6.828,9.012,12.009,14.358   C35.32,102.806,35.562,103.018,35.81,103.22z"/>
    </symbol>
    <symbol id="road-defect" viewBox="0 0 100 68.161">
        <path d="M92.127,63.481H77.742l1.418-10.522l4.429,0.598l3.239-24.038l-2.65-4.222L83.283,11.22c0,0-0.539-3.964-3.912-4.417
    L29.186,0.039c-3.373-0.455-4.944,3.224-4.944,3.224L19.655,16.6l-3.676,3.368l-3.241,24.038l3.796,0.512l-1.442,10.704l9.067,1.221
    l1.443-10.702l44.49,5.997L68.65,62.44l7.725,1.041H54.893v-7.022H0v11.702h100L92.127,63.481z M47.114,19.656
    c-0.589-1.223-1.523-2.516-2.969-3.19c-1.575-0.736-2.26-2.016-2.548-3.133c0.607-0.694,1.047-1.648,1.194-2.74
    c0.322-2.387-0.88-4.52-2.685-4.763c-1.806-0.244-3.53,1.495-3.851,3.882c-0.2,1.478,0.185,2.856,0.934,3.751l-0.28,0.953
    c0,0-1.349-0.276-3.139-0.011c0.035-0.682-0.067-1.396-0.728-0.984c0,0-0.576-0.42-0.701,0.116c0,0-0.596-0.477-0.701,0.116
    c0,0-0.68-0.25-0.756,0.321c0,0-1.171,1.007-1.393,2.195c-0.369,0.28-0.729,0.601-1.076,0.967l-3.405-0.459l1.847-13.706
    l52.925,7.134l-1.846,13.706L47.114,19.656z"></path>
    </symbol>
    <symbol id="light-bulb" viewBox="0 0 100 125">
        <path d="M49.998,27.921c-11.893,0-21.438,9.641-21.438,21.535c0,5.685,3.866,11.433,8.727,17.748  c4.862,6.317-1.873,11.673,12.711,11.673c14.588,0,7.854-5.355,12.714-11.673c4.862-6.315,8.729-12.063,8.729-17.748  C71.441,37.562,61.896,27.921,49.998,27.921z"/><path d="M72.5,11.146c-1.133-0.653-2.581-0.267-3.234,0.867l-4.641,8.042c-0.654,1.133-0.268,2.582,0.866,3.234  c0.372,0.216,0.78,0.317,1.182,0.317c0.818,0,1.616-0.424,2.056-1.184l4.641-8.042C74.021,13.249,73.633,11.8,72.5,11.146z"/><path d="M50,19.14c1.309,0,2.368-1.061,2.368-2.369V7.487c0-1.309-1.06-2.369-2.368-2.369c-1.308,0-2.369,1.061-2.369,2.369v9.283  C47.631,18.079,48.692,19.14,50,19.14z"/><path d="M33.329,23.606c0.401,0,0.81-0.102,1.182-0.316c1.132-0.654,1.521-2.104,0.867-3.235l-4.643-8.041  c-0.653-1.133-2.102-1.521-3.235-0.867c-1.132,0.654-1.521,2.104-0.867,3.235l4.642,8.041C31.714,23.183,32.51,23.606,33.329,23.606  z"/><path d="M92.632,47.751H83.35c-1.31,0-2.369,1.061-2.369,2.368c0,1.309,1.061,2.367,2.369,2.367h9.282  c1.308,0,2.368-1.06,2.368-2.367C95,48.812,93.939,47.751,92.632,47.751z"/><path d="M19.021,50.119c0-1.308-1.061-2.368-2.369-2.368H7.369C6.06,47.751,5,48.812,5,50.119c0,1.309,1.06,2.367,2.369,2.367h9.284  C17.96,52.486,19.021,51.428,19.021,50.119z"/><path d="M78.882,35.813c0.403,0,0.812-0.102,1.183-0.317l8.041-4.642c1.134-0.654,1.521-2.102,0.867-3.235  c-0.654-1.133-2.104-1.521-3.234-0.866l-8.043,4.641c-1.131,0.654-1.521,2.103-0.864,3.235  C77.27,35.389,78.063,35.813,78.882,35.813z"/><path d="M19.937,64.743l-8.04,4.64c-1.133,0.653-1.522,2.104-0.868,3.235c0.438,0.76,1.235,1.185,2.054,1.185  c0.402,0,0.809-0.102,1.182-0.316l8.04-4.641c1.133-0.652,1.522-2.103,0.868-3.234C22.518,64.477,21.069,64.088,19.937,64.743z"/><path d="M11.897,30.854l8.04,4.641c0.373,0.216,0.78,0.317,1.181,0.317c0.819,0,1.615-0.425,2.054-1.184  c0.654-1.134,0.266-2.582-0.868-3.235l-8.04-4.641c-1.134-0.656-2.582-0.266-3.235,0.866C10.375,28.752,10.764,30.199,11.897,30.854  z"/><path d="M88.104,69.383l-8.039-4.643c-1.129-0.652-2.58-0.266-3.233,0.867c-0.655,1.133-0.267,2.58,0.864,3.234l8.041,4.643  c0.373,0.217,0.781,0.317,1.183,0.317c0.817,0,1.615-0.425,2.054-1.185C89.625,71.486,89.238,70.037,88.104,69.383z"/><path d="M57.993,83.1H42.006c-1.046,0-1.895,0.849-1.895,1.895c0,1.047,0.849,1.895,1.895,1.895h15.987  c1.048,0,1.896-0.848,1.896-1.895S59.041,83.1,57.993,83.1z"/><path d="M55.96,88.861H44.041c-1.046,0-1.895,0.849-1.895,1.895c0,1.047,0.848,1.896,1.895,1.896h0.367  c-0.02,0.107-0.033,0.221-0.033,0.336c0,1.046,0.848,1.895,1.895,1.895h7.462c1.045,0,1.896-0.849,1.896-1.895  c0-0.115-0.015-0.229-0.035-0.336h0.368c1.045,0,1.895-0.85,1.895-1.896C57.854,89.71,57.005,88.861,55.96,88.861z"/>
    </symbol>
    <symbol id="tree" viewBox="0 0 69.501 125">
        <polygon points="69.501,81.875 48.751,50 60.495,52.608 45.751,30 54.751,32 34.751,0 34.75,0 14.75,32 23.75,30 9.006,52.608 
    20.75,50 0,81.875 30.75,74.906 30.75,100 39.75,100 39.75,75.133 "/>
    </symbol>
</svg>