<svg xmlns="http://www.w3.org/2000/svg">
    <symbol id="icon-loading" viewBox="0 0 512 512">
        <path d="M50.97,236c4.035-41.876,20.599-80.088,45.91-110.835l28.439,28.439
    C106.525,177.492,94.792,205.819,91.19,236H50.97z M275.999,50.969V91.19c30.181,3.602,58.508,15.335,82.396,34.129l28.44-28.44
    C356.087,71.568,317.875,55.004,275.999,50.969z M153.604,125.319c23.888-18.794,52.215-30.527,82.395-34.129V50.97
    c-41.875,4.035-80.087,20.6-110.834,45.91L153.604,125.319z M125.319,358.395C106.525,334.507,94.792,306.181,91.19,276H50.97
    c4.034,41.876,20.599,80.088,45.909,110.835L125.319,358.395z M358.396,386.681c-23.889,18.794-52.216,30.527-82.396,34.129v40.222
    c41.876-4.035,80.089-20.6,110.836-45.911L358.396,386.681z M386.681,153.604c18.794,23.888,30.527,52.215,34.129,82.396h40.221
    c-4.035-41.876-20.6-80.089-45.91-110.836L386.681,153.604z M420.81,276c-3.602,30.181-15.335,58.508-34.129,82.396l28.439,28.439
    c25.312-30.747,41.875-68.959,45.91-110.835H420.81z M235.999,420.81c-30.18-3.602-58.508-15.335-82.395-34.13l-28.44,28.44
    c30.747,25.311,68.96,41.875,110.835,45.91V420.81z"/>
    </symbol>
    <symbol id="view-5" viewBox="0 0 24 24">
        <path d="M6 6h-6v-6h6v6zm9-6h-6v6h6v-6zm9 0h-6v6h6v-6zm-18 9h-6v6h6v-6zm9 0h-6v6h6v-6zm9 0h-6v6h6v-6zm-18 9h-6v6h6v-6zm9 0h-6v6h6v-6zm9 0h-6v6h6v-6z"/>
    </symbol>
    <symbol id="view-6" viewBox="0 0 24 24">
        <path d="M11 11h-11v-11h11v11zm13 0h-11v-11h11v11zm-13 13h-11v-11h11v11zm13 0h-11v-11h11v11z"/>
    </symbol>
    <symbol id="view-16" viewBox="0 0 24 24">
        <path d="M1.004 6.251l10.996-5.998 10.99 6.06-10.985 5.861-11.001-5.923zm11.996 7.676v9.82l10-5.362v-9.82l-10 5.362zm-2 0l-10-5.411v9.869l10 5.362v-9.82z"/>
    </symbol>
    <symbol id="view-17" viewBox="0 0 24 24">
        <path d="M12 0l-11 6v12.131l11 5.869 11-5.869v-12.066l-11-6.065zm7.91 6.646l-7.905 4.218-7.872-4.294 7.862-4.289 7.915 4.365zm-16.91 1.584l8 4.363v8.607l-8-4.268v-8.702zm10 12.97v-8.6l8-4.269v8.6l-8 4.269z"/>
    </symbol>
    <symbol id="help-6" viewBox="0 0 24 24">
        <path d="M12 3c5.514 0 10 3.592 10 8.007 0 4.917-5.145 7.961-9.91 7.961-1.937 0-3.383-.397-4.394-.644-1 .613-1.595 1.037-4.272 1.82.535-1.373.723-2.748.602-4.265-.838-1-2.025-2.4-2.025-4.872-.001-4.415 4.485-8.007 9.999-8.007zm0-2c-6.338 0-12 4.226-12 10.007 0 2.05.738 4.063 2.047 5.625.055 1.83-1.023 4.456-1.993 6.368 2.602-.47 6.301-1.508 7.978-2.536 1.418.345 2.775.503 4.059.503 7.084 0 11.91-4.837 11.91-9.961-.001-5.811-5.702-10.006-12.001-10.006zm1.024 13.975c0 .566-.458 1.025-1.024 1.025-.565 0-1.024-.459-1.024-1.025 0-.565.459-1.024 1.024-1.024.566 0 1.024.459 1.024 1.024zm1.141-8.192c-.498-.505-1.241-.783-2.09-.783-1.786 0-2.941 1.271-2.941 3.237h1.647c0-1.217.68-1.649 1.261-1.649.519 0 1.07.345 1.117 1.004.052.694-.319 1.046-.788 1.493-1.157 1.1-1.179 1.633-1.173 2.842h1.643c-.01-.544.025-.986.766-1.785.555-.598 1.245-1.342 1.259-2.477.008-.758-.233-1.409-.701-1.882z"/>
    </symbol>
    <symbol id="calendar-1" viewBox="0 0 24 24">
        <path d="M20 19h-4v-4h4v4zm-6-10h-4v4h4v-4zm6 0h-4v4h4v-4zm-12 6h-4v4h4v-4zm16-14v22h-24v-22h24zm-2 6h-20v14h20v-14zm-8 8h-4v4h4v-4zm-6-6h-4v4h4v-4z"/>
    </symbol>
    <symbol id="calendar-2" viewBox="0 0 24 24">
        <path d="M14 13h-4v-4h4v4zm6-4h-4v4h4v-4zm-12 6h-4v4h4v-4zm6 0h-4v4h4v-4zm-6-6h-4v4h4v-4zm16-8v22h-24v-22h24zm-7.471 19.96c1.616-.863 4.35-3.572 5.471-5.058v-.018c-.962.658-2.978 1.207-4.479.856.165 1.087-.137 3.356-.992 4.22zm-14.529.04h11.589c3.328 0 2.331-5.903 2.331-5.903 2.14.529 6.08.278 6.08-1.942v-6.155h-20v14z"/>
    </symbol>
    <symbol id="calendar-3" viewBox="0 0 24 24">
        <path d="M14 13h-4v-4h4v4zm6-4h-4v4h4v-4zm-12 6h-4v4h4v-4zm6 0h-4v4h4v-4zm-6-6h-4v4h4v-4zm16-8v13.386c0 2.391-6.648 9.614-9.811 9.614h-14.189v-23h24zm-2 6h-20v15h11.362c4.156 0 2.638-6 2.638-6s6 1.65 6-2.457v-6.543z"/>
    </symbol>
    <symbol id="calendar-4" viewBox="0 0 24 24">
        <path d="M20 20h-4v-4h4v4zm-6-10h-4v4h4v-4zm6 0h-4v4h4v-4zm-12 6h-4v4h4v-4zm6 0h-4v4h4v-4zm-6-6h-4v4h4v-4zm16-8v22h-24v-22h3v1c0 1.103.897 2 2 2s2-.897 2-2v-1h10v1c0 1.103.897 2 2 2s2-.897 2-2v-1h3zm-2 6h-20v14h20v-14zm-2-7c0-.552-.447-1-1-1s-1 .448-1 1v2c0 .552.447 1 1 1s1-.448 1-1v-2zm-14 2c0 .552-.447 1-1 1s-1-.448-1-1v-2c0-.552.447-1 1-1s1 .448 1 1v2z"/>
    </symbol>
    <symbol id="calendar-7" viewBox="0 0 24 24">
        <path d="M17 1c0-.552-.447-1-1-1s-1 .448-1 1v2c0 .552.447 1 1 1s1-.448 1-1v-2zm-12 2c0 .552-.447 1-1 1s-1-.448-1-1v-2c0-.552.447-1 1-1s1 .448 1 1v2zm13 5v10h-16v-10h16zm2-6h-2v1c0 1.103-.897 2-2 2s-2-.897-2-2v-1h-8v1c0 1.103-.897 2-2 2s-2-.897-2-2v-1h-2v18h20v-18zm4 3v19h-22v-2h20v-17h2zm-17 7h-2v-2h2v2zm4 0h-2v-2h2v2zm4 0h-2v-2h2v2zm-8 4h-2v-2h2v2zm4 0h-2v-2h2v2zm4 0h-2v-2h2v2z"/>
    </symbol>
    <symbol id="layer-1" viewBox="0 0 24 24">
        <path d="M22 6v16h-16v-16h16zm2-2h-20v20h20v-20zm-24-4v20h2v-18h18v-2h-20z"/>
    </symbol>
    <symbol id="layer-9" viewBox="0 0 24 24">
        <path d="M20 0v2h-18v18h-2v-20h20zm4 22.15l-1.85 1.85-8.906-9.196 1.85-1.85 8.906 9.196zm-6.718-5.902l-2.188-2.189-.745.746 2.188 2.189.745-.746zm.147 5.752h-11.429v-16h16v11.21l2 2.065v-15.275h-20v20h15.366l-1.937-2zm.86-11.987c.253.825.898 1.471 1.724 1.723-.825.252-1.471.897-1.724 1.723-.251-.826-.897-1.471-1.723-1.723.826-.252 1.472-.898 1.723-1.723zm-8.017 4.243c.333 1.095 1.191 1.951 2.285 2.285-1.094.334-1.952 1.191-2.285 2.285-.335-1.094-1.191-1.951-2.285-2.285 1.095-.334 1.951-1.19 2.285-2.285zm3.138-3.739c.177.584.635 1.041 1.219 1.219-.584.178-1.042.635-1.219 1.219-.179-.584-.636-1.041-1.22-1.219.584-.178 1.041-.635 1.22-1.219z"/>
    </symbol>
    <symbol id="x-mark-1" viewBox="0 0 24 24">
        <path d="M24 20.188l-8.315-8.209 8.2-8.282-3.697-3.697-8.212 8.318-8.31-8.203-3.666 3.666 8.321 8.24-8.206 8.313 3.666 3.666 8.237-8.318 8.285 8.203z"/>
    </symbol>
    <symbol id="x-mark-2" viewBox="0 0 24 24">
        <path d="M23.954 21.03l-9.184-9.095 9.092-9.174-2.832-2.807-9.09 9.179-9.176-9.088-2.81 2.81 9.186 9.105-9.095 9.184 2.81 2.81 9.112-9.192 9.18 9.1z"/>
    </symbol>
    <symbol id="menu-1" viewBox="0 0 24 24">
        <path d="M24 6h-24v-4h24v4zm0 4h-24v4h24v-4zm0 8h-24v4h24v-4z"/>
    </symbol>
</svg>